<?xml version="1.0" encoding="utf-8"?>
<!-- Generator: Adobe Illustrator 22.0.2, SVG Export Plug-In . SVG Version: 6.00 Build 0)  -->
<svg version="1.1" id="图层_2" xmlns="http://www.w3.org/2000/svg" xmlns:xlink="http://www.w3.org/1999/xlink" x="0px" y="0px"
	 viewBox="0 0 1000 1000" style="enable-background:new 0 0 1000 1000;" xml:space="preserve">
<style type="text/css">
	.st0{fill:none;stroke:#FF0000;stroke-miterlimit:10;}
</style>
<path class="st0" d="M574.5,417.5c-3-4-50-3-74-3s-67-2-77,7s-28,41-22,43s4-13,20-19s32-8,35-4s-4,70-23,93s-28,45-6,49
	s33-33,35-47s4-91,8-96s37-4,42,0s-15,101-5,128s50,19,57,4s16-31,10-33s-6,23-24,21s-23-35-20-74s2-46,4-47s36,3,39,0
	S577.5,421.5,574.5,417.5z"/>
</svg>
